HIERARCHY
ROOT Hips
{
	OFFSET 0.00000 0.00000 0.00000
	CHANNELS 6 Xposition Yposition Zposition Zrotation Yrotation Xrotation 
	JOINT LHipJoint
	{
		OFFSET 0 0 0
		CHANNELS 3 Zrotation Yrotation Xrotation
		JOINT LeftHip
		{
			OFFSET 1.57358 -1.76629 0.73362
			CHANNELS 3 Zrotation Yrotation Xrotation
			JOINT LeftKnee
			{
				OFFSET 2.40600 -6.61045 0.00000
				CHANNELS 3 Zrotation Yrotation Xrotation
				JOINT LeftAnkle
				{
					OFFSET 2.66168 -7.31291 0.00000
					CHANNELS 3 Zrotation Yrotation Xrotation
					JOINT LeftToe
					{
						OFFSET 0.20870 -0.57341 2.12506
						CHANNELS 3 Zrotation Yrotation Xrotation
						End Site
						{
							OFFSET 0.00000 -0.00000 1.10557
						}
					}
				}
			}
		}
	}
	JOINT RHipJoint
	{
		OFFSET 0 0 0
		CHANNELS 3 Zrotation Yrotation Xrotation
		JOINT RightHip
		{
			OFFSET -1.49299 -1.76629 0.73362
			CHANNELS 3 Zrotation Yrotation Xrotation
			JOINT RightKnee
			{
				OFFSET -2.43663 -6.69460 0.00000
				CHANNELS 3 Zrotation Yrotation Xrotation
				JOINT RightAnkle
				{
					OFFSET -2.62959 -7.22474 0.00000
					CHANNELS 3 Zrotation Yrotation Xrotation
					JOINT RightToe
					{
						OFFSET -0.25784 -0.70841 2.21862
						CHANNELS 3 Zrotation Yrotation Xrotation
						End Site
						{
							OFFSET -0.00000 -0.00000 1.16452
						}
					}
				}
			}
		}
	}
	JOINT lowerback
	{
		OFFSET 0 0 0
		CHANNELS 3 Zrotation Yrotation Xrotation
		JOINT Chest
		{
			OFFSET -0.00034 2.12399 -0.25450
			CHANNELS 3 Zrotation Yrotation Xrotation
			JOINT Chest2
			{
				OFFSET 0.05594 2.14379 -0.03318
				CHANNELS 3 Zrotation Yrotation Xrotation
				JOINT lowerneck
				{
					OFFSET 0 0 0
					CHANNELS 3 Zrotation Yrotation Xrotation
					JOINT Neck
					{
						OFFSET -0.09835 1.62725 0.24211
						CHANNELS 3 Zrotation Yrotation Xrotation
						JOINT Head
						{
							OFFSET 0.10849 1.66041 -0.22648
							CHANNELS 3 Zrotation Yrotation Xrotation
							End Site
							{
								OFFSET 0.04385 1.68267 -0.10541
							}
						}
					}
				}
				JOINT LeftCollar
				{
					OFFSET 0 0 0
					CHANNELS 3 Zrotation Yrotation Xrotation
					JOINT LeftShoulder
					{
						OFFSET 3.29108 0.79398 -0.68179
CHANNELS 3 Zrotation Xrotation Yrotation
						JOINT LeftElbow
						{
OFFSET 0 -5.153100 -0.000000
CHANNELS 3 Zrotation Xrotation Yrotation
							JOINT LeftWrist
							{
OFFSET 0 -3.751380 -0.000000
CHANNELS 3 Zrotation Xrotation Yrotation
								JOINT lhand
								{
									OFFSET 0 0 0
CHANNELS 3 Zrotation Xrotation Yrotation
									JOINT LFingers
									{
OFFSET 0 -0.529170 0.000000
CHANNELS 3 Zrotation Xrotation Yrotation
										End Site
										{
OFFSET 0 -0.426630 0.000000
										}
									}
								}
								JOINT LThumb
								{
OFFSET 0 0.000000 0.000000
CHANNELS 3 Zrotation Xrotation Yrotation
									End Site
									{
OFFSET 0 -0.433150 0.433150
									}
								}
							}
						}
					}
				}
				JOINT RightCollar
				{
					OFFSET 0 0 0
					CHANNELS 3 Zrotation Yrotation Xrotation
					JOINT RightShoulder
					{
						OFFSET -3.07414 1.06285 -0.44338
CHANNELS 3 Zrotation Xrotation Yrotation
						JOINT RightElbow
						{
OFFSET 0 -5.296130 0.000000
CHANNELS 3 Zrotation Xrotation Yrotation
							JOINT RightWrist
							{
OFFSET 0 -3.761440 -0.000000
CHANNELS 3 Zrotation Xrotation Yrotation
								JOINT rhand
								{
									OFFSET 0 0 0
CHANNELS 3 Zrotation Xrotation Yrotation
									JOINT RFingers
									{
OFFSET 0 -0.747320 0.000000
CHANNELS 3 Zrotation Xrotation Yrotation
										End Site
										{
OFFSET 0 -0.602510 0.000000
										}
									}
								}
								JOINT RThumb
								{
OFFSET 0 0.000000 0.000000
CHANNELS 3 Zrotation Xrotation Yrotation
									End Site
									{
OFFSET 0 -0.611710 0.611710
									}
								}
							}
						}
					}
				}
			}
		}
	}
}
MOTION
Frames: 9
Frame Time: 0.008333333333333333
-6.790268 17.125953 -0.198576 -22.725853 64.334768 -14.936791 0.000000 0.000000 0.000000 -27.131434 -2.919902 -39.284420 4.020000 12.183449 36.388940 1.379888 -5.452830 -21.087229 0.000465 -0.124993 -0.343433 0.000000 0.000000 0.000000 24.779864 13.950587 8.484718 -1.713544 -8.240345 23.447501 -0.610128 4.481874 -13.924022 -0.056610 1.504273 -4.137902 6.574071 -0.970859 8.485750 6.111633 -0.196240 0.008867 2.725926 -0.116366 -4.781577 -6.586054 -2.797238 -17.512733 1.641335 -2.379897 17.099443 1.340373 -1.373956 8.308581 0.000000 0.000000 0.000000 -0.818221 0.698301 -24.428732 16.759327 -26.538571 3.979639 10.193670 1.786557 -19.950151 0.000000 0.000000 0.000000 -7.125000 0.000000 0.000000 -17.841318 49.379099 1.956762 0.000000 0.000000 0.000000 -14.388848 6.169936 19.536719 -19.893138 -30.513248 -5.477037 -22.264610 -2.446268 -10.757699 0.000000 0.000000 0.000000 7.125000 0.000000 0.000000 3.389435 18.389809 2.150904
-6.752405 17.108058 -0.125329 -23.332158 64.995705 -15.475574 0.000000 0.000000 0.000000 -27.730302 -2.519905 -39.611260 3.837401 11.936347 35.513221 1.375065 -5.519091 -21.043686 0.000194 -0.050980 -0.140099 0.000000 0.000000 0.000000 24.982792 13.508760 8.928753 -1.643633 -8.078435 22.953703 -0.604584 5.018223 -13.854065 -0.035831 1.171618 -3.221705 6.593814 -1.030178 8.554850 6.130700 -0.259120 -0.024398 2.745579 -0.148099 -4.856131 -6.722361 -2.801115 -17.545998 1.800405 -2.379491 17.091330 1.415919 -1.366068 8.315342 0.000000 0.000000 0.000000 -0.759263 0.561904 -23.257996 16.539180 -26.245312 3.881916 11.649011 3.961071 -21.043854 0.000000 0.000000 0.000000 -7.125000 0.000000 0.000000 -16.941754 50.655897 2.388086 0.000000 0.000000 0.000000 -14.638745 6.057609 19.891956 -19.809614 -30.412145 -5.434712 -22.342229 -2.527403 -10.694098 0.000000 0.000000 0.000000 7.125000 0.000000 0.000000 3.332505 18.451427 2.110111
-6.714568 17.089871 -0.053300 -24.008158 65.580540 -16.061581 0.000000 0.000000 0.000000 -28.245951 -2.167018 -39.930030 3.655563 11.684893 34.629318 1.371397 -5.497374 -21.017044 0.000102 -0.021323 -0.058632 0.000000 0.000000 0.000000 25.224761 13.077757 9.340256 -1.575333 -7.917946 22.465564 -0.597885 5.517435 -13.779414 -0.020545 0.924543 -2.541247 6.663268 -1.056255 8.611605 6.150414 -0.273938 -0.054060 2.731673 -0.156969 -4.920142 -6.978073 -2.845072 -17.690942 2.095527 -2.421285 17.209955 1.551770 -1.372479 8.390884 0.000000 0.000000 0.000000 -0.685180 0.416600 -22.236823 16.347441 -25.989393 3.797058 12.840826 5.795273 -21.937711 0.000000 0.000000 0.000000 -7.125000 0.000000 0.000000 -16.202880 51.703096 2.732282 0.000000 0.000000 0.000000 -14.841633 5.954062 20.114592 -19.738790 -30.326355 -5.398844 -22.316506 -2.444269 -10.599298 0.000000 0.000000 0.000000 7.125000 0.000000 0.000000 3.347782 18.555003 2.111543
-6.676795 17.070940 0.015620 -24.862061 65.971116 -16.768134 0.000000 0.000000 0.000000 -28.549171 -1.934385 -40.228202 3.475668 11.422331 33.724525 1.370676 -5.251083 -21.033541 0.000462 -0.104892 -0.288244 0.000000 0.000000 0.000000 25.566385 12.674379 9.668719 -1.511146 -7.761085 21.991869 -0.588239 5.921849 -13.692780 -0.019283 0.895921 -2.462546 6.859615 -0.997477 8.636847 6.171780 -0.166073 -0.074524 2.632102 -0.107476 -4.957239 -7.538582 -2.991341 -18.120958 2.737937 -2.570800 17.652097 1.841558 -1.415390 8.641997 0.000000 0.000000 0.000000 -0.572493 0.248560 -21.597433 16.228217 -25.828791 3.745042 13.359956 6.760782 -22.321436 0.000000 0.000000 0.000000 -7.125000 0.000000 0.000000 -15.874193 52.164215 2.854075 0.000000 0.000000 0.000000 -14.924526 5.872927 19.998749 -19.700386 -30.279658 -5.379462 -22.026989 -1.941817 -10.424857 0.000000 0.000000 0.000000 7.125000 0.000000 0.000000 3.547374 18.765684 2.220760
-6.638843 17.051960 0.084622 -25.717088 66.360137 -17.476651 0.000000 0.000000 0.000000 -28.850609 -1.703481 -40.521898 3.296574 11.159689 32.820960 1.369398 -5.002789 -21.046193 0.000976 -0.193332 -0.531241 0.000000 0.000000 0.000000 25.907402 12.264001 9.997680 -1.446661 -7.602870 21.514397 -0.578672 6.318958 -13.607593 -0.018395 0.875349 -2.405996 7.055605 -0.935225 8.660020 6.190602 -0.054102 -0.094818 2.529454 -0.056006 -4.992809 -8.075249 -3.135285 -18.534605 3.352481 -2.719000 18.075700 2.118223 -1.458833 8.883311 0.000000 0.000000 0.000000 -0.449835 0.085435 -21.004989 16.115492 -25.676941 3.695863 13.860429 7.665106 -22.690956 0.000000 0.000000 0.000000 -7.125000 0.000000 0.000000 -15.557067 52.608484 2.970995 0.000000 0.000000 0.000000 -14.997460 5.795739 19.862588 -19.661783 -30.232707 -5.359983 -21.735340 -1.437704 -10.255185 0.000000 0.000000 0.000000 7.125000 0.000000 0.000000 3.748707 18.971305 2.331274
-6.598230 17.032262 0.154849 -26.588841 66.726011 -18.214395 0.000000 0.000000 0.000000 -29.125523 -1.498299 -40.748987 3.129390 10.895864 31.935685 1.359842 -4.724676 -21.001614 0.003771 -0.354250 -0.973428 0.000000 0.000000 0.000000 26.239381 11.749423 10.334076 -1.377741 -7.424508 20.980708 -0.570288 6.607349 -13.543947 -0.023083 0.974605 -2.679106 7.246273 -0.821275 8.652403 6.171581 0.118987 -0.112578 2.381022 0.024904 -5.005655 -8.257082 -3.244637 -18.704629 3.552299 -2.847644 18.223412 2.199583 -1.510173 8.978780 0.000000 0.000000 0.000000 -0.178798 -0.004535 -21.111231 16.099491 -25.655350 3.688921 14.083235 7.658840 -22.849079 0.000000 0.000000 0.000000 -7.125000 0.000000 0.000000 -15.412015 52.801991 3.015394 0.000000 0.000000 0.000000 -14.922185 5.777304 19.424053 -19.620224 -30.181998 -5.339068 -21.411971 -0.908882 -10.156470 0.000000 0.000000 0.000000 7.125000 0.000000 0.000000 3.975930 19.101617 2.461090
-6.557618 17.012564 0.225076 -27.460594 67.091886 -18.952140 0.000000 0.000000 0.000000 -29.400436 -1.293117 -40.976075 2.962206 10.632039 31.050410 1.350286 -4.446562 -20.957035 0.006565 -0.515168 -1.415615 0.000000 0.000000 0.000000 26.571359 11.234845 10.670472 -1.308821 -7.246145 20.447018 -0.561904 6.895739 -13.480301 -0.027771 1.073860 -2.952216 7.436941 -0.707326 8.644785 6.152559 0.292075 -0.130337 2.232589 0.105814 -5.018502 -8.438915 -3.353990 -18.874652 3.752117 -2.976289 18.371123 2.280944 -1.561514 9.074249 0.000000 0.000000 0.000000 0.092239 -0.094505 -21.217473 16.083489 -25.633759 3.681980 14.306041 7.652575 -23.007203 0.000000 0.000000 0.000000 -7.125000 0.000000 0.000000 -15.266964 52.995499 3.059793 0.000000 0.000000 0.000000 -14.846910 5.758868 18.985517 -19.578665 -30.131288 -5.318153 -21.088602 -0.380061 -10.057756 0.000000 0.000000 0.000000 7.125000 0.000000 0.000000 4.203154 19.231929 2.590906
-6.516586 16.995759 0.281866 -27.702131 67.453802 -18.956630 0.000000 0.000000 0.000000 -29.806630 -1.411436 -41.219074 2.812304 10.379900 30.220707 1.338599 -3.991720 -20.929888 0.011948 -0.681796 -1.873751 0.000000 0.000000 0.000000 26.475885 10.544757 10.750244 -1.233088 -7.037789 19.829171 -0.538980 7.329228 -13.290474 -0.038967 1.255904 -3.453555 7.522325 -0.615414 8.603900 6.048161 0.418460 -0.223120 2.059606 0.160422 -5.089852 -8.567307 -3.388357 -18.976694 3.931533 -3.018225 18.491619 2.358955 -1.570642 9.141932 0.000000 0.000000 0.000000 0.390224 -0.063623 -21.513233 16.142815 -25.713835 3.707773 15.166677 7.452528 -23.485440 0.000000 0.000000 0.000000 -7.125000 0.000000 0.000000 -14.635956 53.623881 3.141457 0.000000 0.000000 0.000000 -14.913192 5.711314 18.917719 -19.521652 -30.061585 -5.289626 -20.768430 -0.381502 -10.095232 0.000000 0.000000 0.000000 7.125000 0.000000 0.000000 4.431215 19.216306 2.734387
-6.475478 16.979487 0.336182 -27.827575 67.814989 -18.826048 0.000000 0.000000 0.000000 -30.237007 -1.589348 -41.465004 2.665584 10.129914 29.401241 1.326519 -3.504323 -20.905953 0.017808 -0.849475 -2.334824 0.000000 0.000000 0.000000 26.301669 9.822338 10.782743 -1.156099 -6.823908 19.195820 -0.513377 7.789445 -13.077404 -0.051363 1.453197 -3.996935 7.588315 -0.527563 8.556886 5.928036 0.536241 -0.329723 1.882100 0.210185 -5.171978 -8.685854 -3.408911 -19.066213 4.107191 -3.044188 18.607101 2.436349 -1.571994 9.204496 0.000000 0.000000 0.000000 0.693174 -0.010480 -21.843905 16.216017 -25.812640 3.739596 16.144807 7.216785 -24.022645 0.000000 0.000000 0.000000 -7.125000 0.000000 0.000000 -13.915430 54.332372 3.229984 0.000000 0.000000 0.000000 -15.005551 5.658395 18.918215 -19.461792 -29.988383 -5.259696 -20.448848 -0.480622 -10.157796 0.000000 0.000000 0.000000 7.125000 0.000000 0.000000 4.659431 19.173800 2.880386
